<?xml version="1.0" standalone="no"?>
<!DOCTYPE svg PUBLIC "-//W3C//DTD SVG 20010904//EN" "http://www.w3.org/TR/2001/REC-SVG-20010904/DTD/svg10.dtd">
<svg xmlns="http://www.w3.org/2000/svg" version="1.0" width="281.000000pt" height="425.000000pt" viewBox="0 0 281.000000 425.000000" preserveAspectRatio="xMidYMid meet">
<metadata>
Created by potrace 1.16, written by Peter Selinger 2001-2019
<meta name="Producer" content="Online-Convert"/></metadata>
<g transform="translate(0.000000,425.000000) scale(0.100000,-0.100000)" fill="#000000" stroke="none">
<path d="M2482 4233 c-5 -10 -20 -62 -32 -115 -12 -54 -23 -98 -25 -98 -1 0 -46 9 -99 20 -292 61 -588 90 -920 90 -271 0 -407 -9 -641 -41 -290 -39 -691 -134 -735 -174 -25 -23 -35 -76 -20 -105 6 -12 27 -28 45 -36 30 -12 48 -10 246 40 333 83 578 120 902 136 172 8 512 0 632 -15 147 -18 289 -40 408 -62 155 -29 146 -19 121 -129 -19 -80 -16 -99 20 -115 19 -9 31 -8 53 3 372 192 383 200 368 249 -8 24 -112 192 -182 294 -45 66 -51 70 -90 73 -32 2 -44 -1 -51 -15z"/>
<path d="M1245 3622 c-64 -31 -113 -78 -144 -140 -10 -20 -115 -323 -234 -672 -119 -349 -218 -642 -222 -650 -3 -9 -34 -23 -72 -33 -209 -55 -368 -196 -472 -419 -62 -132 -83 -221 -88 -389 -5 -126 -2 -161 16 -249 110 -512 402 -845 883 -1004 200 -67 365 -83 520 -51 179 37 423 206 535 371 109 161 251 459 410 858 114 287 122 320 100 397 -32 109 -111 183 -216 204 l-56 12 -5 84 c-9 136 -60 212 -178 267 -45 20 -65 24 -133 20 l-79 -3 0 27 c0 15 -9 52 -20 82 -48 126 -192 195 -341 163 l-37 -7 65 197 c199 614 195 602 191 683 -7 116 -54 193 -150 245 -43 23 -68 30 -133 33 -72 3 -86 0 -140 -26z m195 -124 c25 -13 55 -38 67 -57 44 -66 39 -86 -167 -724 -104 -323 -190 -597 -190 -609 0 -53 79 -79 117 -39 10 11 47 72 82 136 37 68 76 124 93 136 66 47 168 29 208 -36 28 -46 25 -106 -10 -207 -40 -115 -29 -148 50 -148 29 0 49 19 81 77 9 17 36 40 63 53 59 28 121 22 167 -18 34 -28 68 -93 69 -129 0 -12 -25 -91 -55 -174 -60 -165 -64 -188 -37 -211 57 -51 98 -27 138 82 l31 85 51 0 c36 -1 60 -7 79 -21 38 -28 73 -82 73 -111 0 -53 -221 -594 -351 -858 -103 -209 -171 -309 -268 -392 -254 -216 -476 -252 -807 -127 -308 115 -511 289 -642 549 -79 159 -132 357 -132 500 0 124 12 201 50 319 65 200 181 337 339 397 l50 18 -75 -219 c-65 -190 -74 -222 -63 -242 7 -13 17 -26 23 -30 20 -14 73 -8 88 10 8 9 158 438 333 952 174 514 323 946 330 960 18 35 54 66 95 84 48 21 68 20 120 -6z"/>
</g>
</svg>
